<!-- icon666.com - MILLIONS OF FREE VECTOR ICONS --><svg id="Layer_1" width="48" height="48" enable-background="new 0 0 491.5 491.5" viewBox="0 0 491.5 491.5" xmlns="http://www.w3.org/2000/svg" xmlns:xlink="http://www.w3.org/1999/xlink"><linearGradient id="SVGID_1_" gradientUnits="userSpaceOnUse" x1="245.75" x2="245.75" y1="35.5" y2="456"><stop offset="0" stop-color="#f704fe"></stop><stop offset="1" stop-color="#24bce3"></stop></linearGradient><path d="m122.5 174.4 65.2 57.7 65.2-57.7c.9-.8 2-1.2 3.2-1.2h83.8v-61.7c0-3.2-2.6-5.8-5.8-5.8-97.6-.1-195.2-.1-292.8-.1-3.2 0-5.8 2.6-5.8 5.9v61.7h83.8c1.2 0 2.3.4 3.2 1.2zm50.3-44.2h29.6c7.6 0 13.6 6.1 13.6 13.6s-6.1 13.6-13.6 13.6h-29.6c-7.5 0-13.6-6.1-13.6-13.6s6.1-13.6 13.6-13.6zm-31.7-78.4c0-1.3 1.1-2.4 2.4-2.4h88.8c1.3 0 2.4 1.1 2.4 2.4v25.3h13.9v-34.7c0-3.8-3.2-6.9-7-6.9h-107.6c-3.9 0-7 3.1-7 6.9v34.7h14.1zm83.5 34.9h33.7v9.3h-33.7zm-107.5 0h33.6v9.3h-33.6zm223.8 161.6c-51 0-92.5 41.5-92.5 92.5s41.5 92.5 92.5 92.5 92.5-41.5 92.5-92.5-41.5-92.5-92.5-92.5zm57.1 54.1 10.9-6.3c2.3-1.3 5.2-.5 6.6 1.7 1.3 2.3.5 5.2-1.8 6.6l-10.9 6.3c-2.3 1.3-5.3.5-6.6-1.8s-.5-5.2 1.8-6.5zm-100.1-36.2c2.3-1.3 5.2-.5 6.6 1.8l6.3 10.9c1.3 2.3.5 5.2-1.8 6.5-2.4 1.4-5.3.6-6.6-1.7l-6.3-10.9c-1.3-2.3-.5-5.2 1.8-6.6zm-43 74.6c0-2.7 2.1-4.8 4.8-4.8h12.5c2.7 0 4.8 2.1 4.8 4.8s-2.2 4.8-4.8 4.8h-12.5c-2.7 0-4.8-2.1-4.8-4.8zm28.9 38.6-10.9 6.2c-.8.4-1.6.7-2.4.7-1.7 0-3.3-.9-4.2-2.4-1.3-2.3-.5-5.2 1.8-6.6l10.9-6.3c2.3-1.3 5.2-.5 6.6 1.8 1.3 2.3.5 5.2-1.8 6.6zm1.8-70.6c-1.4 2.4-4.4 3.2-6.6 1.8l-10.9-6.3c-2.3-1.3-3.1-4.3-1.8-6.6s4.3-3.1 6.6-1.7l10.9 6.3c2.3 1.3 3.1 4.3 1.8 6.5zm25.1 93.9-6.3 10.9c-1.3 2.3-4.3 3.1-6.6 1.8s-3.1-4.3-1.8-6.6l6.3-10.9c1.3-2.3 4.3-3.1 6.6-1.8s3.1 4.3 1.8 6.6zm1.8-40.7c-1.7 0-3.3-.9-4.2-2.4-1.3-2.3-.5-5.2 1.8-6.6l25.9-15v-46.4c0-2.6 2.1-4.8 4.8-4.8s4.8 2.1 4.8 4.8v49.2c0 1.7-.9 3.3-2.4 4.1l-28.3 16.4c-.7.5-1.6.7-2.4.7zm33.2 60c0 2.7-2.1 4.8-4.8 4.8s-4.8-2.1-4.8-4.8v-12.5c0-2.7 2.1-4.8 4.8-4.8s4.8 2.1 4.8 4.8zm0-149.9c0 2.7-2.2 4.8-4.8 4.8-2.7 0-4.8-2.1-4.8-4.8v-12.5c0-2.7 2.1-4.8 4.8-4.8s4.8 2.2 4.8 4.8zm38.2 143.3c-2.3 1.2-5.2.5-6.6-1.8l-6.3-10.9c-1.3-2.3-.5-5.2 1.8-6.6 2.3-1.3 5.2-.5 6.6 1.8l6.3 10.9c1.3 2.3.5 5.2-1.8 6.6zm1.8-142.5-6.3 10.9c-1.4 2.2-4.3 3-6.6 1.7s-3.1-4.3-1.8-6.5l6.3-10.9c1.3-2.3 4.3-3.1 6.6-1.8s3.1 4.3 1.8 6.6zm29.7 110.9c-1.4 2.3-4.3 3.1-6.6 1.8l-10.9-6.3c-2.3-1.3-3.1-4.3-1.8-6.6s4.3-3.1 6.6-1.8l10.9 6.3c2.3 1.3 3.1 4.3 1.8 6.6zm6.7-38.2h-12.5c-2.7 0-4.8-2.1-4.8-4.8s2.1-4.8 4.8-4.8h12.5c2.7 0 4.8 2.1 4.8 4.8s-2.1 4.8-4.8 4.8zm-81.3-120c-63.5 0-115.2 51.7-115.2 115.2s51.7 115.2 115.2 115.2c63.6 0 115.2-51.7 115.2-115.2s-51.7-115.2-115.2-115.2zm.1 217.3c-56.3 0-102.1-45.8-102.1-102.1s45.8-102.1 102.1-102.1 102.1 45.8 102.1 102.1-45.8 102.1-102.1 102.1zm-156.4-200.8-67-59.3h-82v11.4h75.8c1.2 0 2.3.4 3.2 1.2l73.2 64.8 73.2-64.8c.9-.8 2-1.2 3.2-1.2h75.8v-11.4h-82l-67 59.3c-1.8 1.6-4.6 1.6-6.4 0zm-11.7-94.3h29.6c2.3 0 4-1.8 4-4s-1.8-4-4-4h-29.6c-2.2 0-4 1.8-4 4s1.8 4 4 4zm167 68.3v-12.3h-74l-75 66.4c-1.7 1.6-4.5 1.6-6.3 0l-75-66.4h-74v110.9c0 3.2 2.6 5.8 5.8 5.8h176.4c9.7-58.8 60.7-103.9 122.1-104.4z" fill="url(#SVGID_1_)"></path></svg>
